<svg width="217" height="164" viewBox="0 0 217 164" fill="none" xmlns="http://www.w3.org/2000/svg">
    <path d="M98.2496 207.095C59.9382 207.095 41.1916 197.507 41.1916 167.471C41.1916 137.156 59.9894 127.55 98.2496 127.55C136.51 127.55 155.086 137.156 155.086 167.471C155.086 197.507 136.339 207.095 98.2496 207.095ZM98.2496 242.292C156.773 242.292 196.499 220.641 196.499 167.471C196.499 114.023 156.773 92.3889 98.2496 92.3889C39.4703 92.3889 0 114.023 0 167.471C0 220.641 39.4703 242.292 98.2496 242.292Z" fill="#878787"/>
    <path fill-rule="evenodd" clip-rule="evenodd" d="M185.658 103.46C164.26 86.504 136.288 80.4726 82.6719 78.7381C28.7838 76.8205 16.8882 37.9633 15.1328 19.7288C17.829 22.4867 23.7106 26.2045 33.0564 30.014C28.0329 18.9092 26.9103 7.7877 27.0775 0.291992C33.4684 8.58991 62.1508 26.7198 120.589 38.2776C178.342 49.6999 187.808 86.3035 185.983 103.129C185.985 103.328 185.985 103.525 185.983 103.719C185.962 103.702 185.941 103.685 185.919 103.668C185.917 103.685 185.915 103.702 185.913 103.72C185.828 103.633 185.743 103.546 185.658 103.46Z" fill="#878787"/>
</svg>
